/* XPM */
static char *E[] = {
/* columns rows colors chars-per-pixel */
"64 64 14 1 ",
"  c #34627F",
". c #3E637F",
"X c #4C637C",
"o c #7E686E",
"O c #666576",
"+ c #726872",
"@ c #7A6870",
"# c #9C6D5F",
"$ c #A06E5C",
"% c #866A6A",
"& c #82696C",
"* c #896A6A",
"= c #966B62",
"- c #1C6182",
/* pixels */
"----------------------------------------------------------------",
"----------------------------------------------------------------",
"----------------------------------------------------------------",
"----------------------------------------------------------------",
"----------------------------------------------------------------",
"----------------------------------------------------------------",
"----------------------------------------------------------------",
"----------------------------------------------------------------",
"----------------------------------------------------------------",
"----------------------------------------------------------------",
"------------------- ---------------- -  ------- ----------------",
"------------------- ----------------    ------- ----------------",
"-------------------+&*&*&**&&*&*O+%%%%%%X+o%%   ----------------",
"-------------------+$$$$$$$$$$$$$$$$$$$$#$$$$   ----------------",
"------------------ *$$$$$$$$$$$$$$$$$$$$$$$$$X  ----------------",
"------------------ *$$$$$$$$$$$$$$$$$$$$$$$$$   ----------------",
"-------------------*$$$$$$$$$$$$$$$$$$$$$$$$+ ------------------",
"-------------------*$$$$$$$$$$$$$$$$$$$=$$$$= ------------------",
"-------------------*$$$$$$$$$$$$$$$$$$==$$$$=.------------------",
"-------------------*$$$$$$$&XXXXXXXXXX  XXXX. ------------------",
"-------------------*$$$$$$$@----    ----    --------------------",
"-------------------*$$$$$$$@----    ----    --------------------",
"-------------------*$$$$$$$@--------------  --------------------",
"-------------------*$$$$$$$@--------------- --------------------",
"-------------------*$$$$$$$@------------------------------------",
"-------------------*$$$$$$$@------------------------------------",
"-------------------*$$$$$$$@--------------- --------------------",
"-------------------*$$$$$$$@--------------- --------------------",
"-------------------*$$$$$$$@----    ----    --------------------",
"-------------------*$$$$$$$@----    ----    --------------------",
"-------------------*$$$$$$$*OOOO  OOOO XOOOX -------------------",
"-------------------*$$$$$$$$$$$$==$$$###$#$+ -------------------",
"----------------   %$$$$$$$$$$$$$$$$$$$$$$$$   -----------------",
"----------------   o$$$$$$$$$$$$$$$$$$$$$$$$    ----------------",
"----------------   +$$$$$$$$$$$$$$$$$$$$$$$$    ----------------",
"----------------   %$$$$$$$$$$$#$$$$$$$$$$$$    ----------------",
"----------------   .$$$$$$$$o%####=O$$$$o==# -------------------",
"----------------   O$$$$$$$@           .    --------------------",
"----------------   O$$$$$$$@--    --    ------------------------",
"----------------   @$$$$$$$@---         ------------------------",
"----------------   +=$$$$$$o        ----------------------------",
"----------------   @$$$$$$$+        ----------------------------",
"----------------   O$$$$$$$o    -- -----------------------------",
"----------------   .$$$$$$$o    --------------------------------",
"------------       o$$$$$$$+    --------------------------------",
"------------       @$$$$$$$+    --------------------------------",
"------------ -     +$$$$#$#O    --------------------------------",
"--------------     @$$$$###     --------------------------------",
"----------------   +##$$$$$+                --------------------",
"----------------   .##$$$$$$#$Oo%%@#o@+=o%@#O - ----------------",
"----------------   o#$$$$$$$$$$$$$$$$$$$##$$=   ----------------",
"----------------   +$$$$$$$$$$$$$$$$$$$$$$$$$   ----------------",
"----------------   O$$$#$$$$$$$$$$$$$$$$$$$$$   ----------------",
"----------------   X$$$#$$$$$$$$$$$$$$$$$$$$$   ----------------",
"----------------   %$$=#$$$$$$$$$$$$$$$$$$$$= ------------------",
"----------------   o$$=+$$$$$$$$$$$$$$$$$$$$+ ------------------",
"--------------------------------        ------------------------",
"--------------------------------        ------------------------",
"--------------------------------        ------------------------",
"--------------------------------        ------------------------",
"------------------------------------ ---------------------------",
"----------------------------------------------------------------",
"----------------------------------------------------------------",
"----------------------------------------------------------------"
};
