/* XPM */
static char *N[] = {
/* columns rows colors chars-per-pixel */
"64 64 47 1 ",
"  c #782E35",
". c #782E38",
"X c #782F3B",
"o c #782F3D",
"O c #773244",
"+ c #773349",
"@ c #753853",
"# c #753859",
"$ c #743C65",
"% c #743E6A",
"& c #724070",
"* c #724271",
"= c #724476",
"- c #714479",
"; c #6F4A85",
": c #6E4D8A",
"> c #6D4E8E",
", c #6B5197",
"< c #6C5096",
"1 c #6B5199",
"2 c #6857A4",
"3 c #6857A6",
"4 c #6659A9",
"5 c #655DB1",
"6 c #645DB2",
"7 c #635EB6",
"8 c #6260B7",
"9 c #6162BD",
"0 c #6063BF",
"q c #5F64C3",
"w c #5A6ACD",
"e c #5A6ACF",
"r c #576DD7",
"t c #596CD2",
"y c #586DD4",
"u c #566FD9",
"i c #5371DE",
"p c #6064C0",
"a c #4E75E7",
"s c #4E76E7",
"d c #4E76E8",
"f c #4B78EC",
"g c #497AEF",
"h c #5273E1",
"j c #477BF2",
"k c #467CF4",
"l c #497AF0",
/* pixels */
"                                                                ",
"                                                                ",
"                                                                ",
"                                                                ",
"                                                                ",
"                                                                ",
"                                                                ",
"                                                                ",
"                                            ..                  ",
"                                            ..                  ",
"                7wwtwtwt-                $wtwwwww,              ",
"                tkkkkklku               o%kkkkkkk4              ",
"                tkkkkkkkk1               =kkkkkkk4              ",
"                tkkkkkkkkd+             .%kkkkkkk8              ",
"                tkkkkkkkkk9             .&fkkkkkk7              ",
"                tkkkkkkkkkl%            .=kkkkkkk8              ",
"                tkkkkkkkkkkw             *kkkkkkk7              ",
"                tkkkkkkkkkkk:            *kkkkkkk4              ",
"                tkkkkkkkkkkkho           *kkkkkkk4              ",
"                tkkkkkkkkkkkk4           *kkkkkkk7              ",
"                tkkkkkkkkkkkkf#          *kkkkkkk8              ",
"                tkkkkkkkkkkkkkq          *kkkkkkl5              ",
"                tkkkkkkkkkkkkkl-         *kkkkkkk4              ",
"                tkkkkkkkkkkkkkki         *kkkkkkk7              ",
"                tkkkkkkl7kkkkkkk,        *kkkkkkl5              ",
"                tkkkkkkl+akkkkkks+       &kkkkkkl8              ",
"                tkkkkkkl 1kkkkkkk8       &kkkkkkk8              ",
"                tkkkkkkl  rkkkkkkg*      =kkkkkkl8              ",
"                tkkkkkkl  =kkkkkkkw      &kkkkkkl4              ",
"                tkkkkkkl   pkkkkkkk:     &kkkkkkk8              ",
"                tkkkkkkl   @dkkkkkki     &kkkkkkl5              ",
"                tkkkkkkl    3kkkkkkk4    =kkkkkkk8              ",
"                ykkkkkkg     ikkkkkkf@X  &fkkkkkk8              ",
"                ykkkkkkg     :kkkkkkkp X &kkkkkkk4              ",
"                tkkkkkkf      qkkkkkkl=X =kkkkkkk4              ",
"                tkkkkkkk      &fkkkkkfy  &kkkkkkk8              ",
"                tkkkkkkf       5kkkkkkk1 =kkkkkkk8              ",
"                tkkkkkkf       +skkkkkks+&kkkkkkk4              ",
"                tkkkkkkk        ,kkkkkkk8=kkkkkkk8              ",
"                tkkkkkkf         ykkkkkkf:kkkkkkk8              ",
"                tkkkkkkf         =fkkkkkkakkkkkkk8              ",
"                tkkkkkkk          pkkkkkkkkkkkkkk4              ",
"                tkkkkkkf          @fkkkkkkkkkkkkk4              ",
"                tkkkkkkk           4kkkkkkkkkkkkf8              ",
"                wkkkkkkf           .ifkkkkkkkkkkk4 .            ",
"                tkkkkkkk            :kkkkkkkkkkkk8..            ",
"              ..tkkkkkkf             wkkkkkkkkkkk4.             ",
"              . tkkkkkkk            .#kkkkkkkkkkk8              ",
"                tkkkkkkk              8kkkkkkkkkk4X             ",
"                tkkkkkkf..            Oskkkkkkkkk8              ",
"                ykkkkkkk               :kkkkkkkkf5              ",
"                wkkkkkkf                ykkkkkkkl8              ",
"                ykkkkkkf                =kkkkkkkk8              ",
"                ykkkkkkf                 9kkkkkkl4              ",
"                                                X               ",
"                                                                ",
"                                                                ",
"                                                                ",
"                                                                ",
"                                                                ",
"                                                                ",
"                                                                ",
"                                                                ",
"                                                                "
};
