/* XPM */
static char *piyo[] = {
/* columns rows colors chars-per-pixel */
"64 64 118 2 ",
"   c #231F1D",
".  c #2E281F",
"X  c #202020",
"o  c #2C2C2C",
"O  c #363021",
"+  c #3A3321",
"@  c #383838",
"#  c #400000",
"$  c #4C0000",
"%  c #580000",
"&  c #640000",
"*  c #700000",
"=  c #7C0000",
"-  c #543C1C",
";  c #453D24",
":  c #585400",
">  c #706C00",
",  c gray25",
"<  c #484848",
"1  c gray33",
"2  c #646463",
"3  c gray44",
"4  c #7C7C7C",
"5  c #880000",
"6  c #980000",
"7  c #A40000",
"8  c #B00000",
"9  c #BC0000",
"0  c #C80000",
"q  c #D40000",
"w  c #EC0000",
"e  c #FC0000",
"r  c #FC2020",
"t  c #A86840",
"y  c #848400",
"u  c #9C9C00",
"i  c #CCC400",
"p  c #E4D800",
"a  c #FCF400",
"s  c #BDA847",
"d  c #DD884E",
"f  c #DD8950",
"g  c #E18A4D",
"h  c #F08F48",
"j  c #EE9E4D",
"k  c #F79246",
"l  c #F39048",
"z  c #F89D49",
"x  c #E88C58",
"c  c #CCB64D",
"v  c #F9AD4D",
"b  c #E8AA53",
"n  c #FAB750",
"m  c #FABB51",
"M  c #D98F63",
"N  c #CEBD6C",
"B  c #CFBF7A",
"V  c #DDC654",
"C  c #E8D04F",
"Z  c #E4CC55",
"A  c #E4CE5B",
"S  c #FBC254",
"D  c #F5CB59",
"F  c #FCCF58",
"G  c #E7D051",
"H  c #ECD358",
"J  c #F0D755",
"K  c #FDD75A",
"L  c #F5DC59",
"P  c #FADE5B",
"I  c #FEE35E",
"U  c #D6C46D",
"Y  c #DDC96D",
"T  c #D2C174",
"R  c #ECD567",
"E  c #F6DE6E",
"W  c #F9DF6A",
"Q  c #ECD77F",
"!  c #EFD97C",
"~  c #F3DC74",
"^  c #F1DA79",
"/  c #FCE164",
"(  c #F9E069",
")  c gray55",
"_  c #918F89",
"`  c #979797",
"'  c #989898",
"]  c #BCB497",
"[  c #BBB49B",
"{  c #A0A0A0",
"}  c #AAAAAA",
"|  c #B7B4A7",
" . c #B5B3AB",
".. c #B9B5AD",
"X. c #BEBAAE",
"o. c #B5B5B5",
"O. c #B9B7B3",
"+. c #BCB9B2",
"@. c #BCBCBB",
"#. c #CE9D87",
"$. c #D2A48F",
"%. c #C2B789",
"&. c #C8BF9E",
"*. c #C4BEAB",
"=. c #D8C780",
"-. c #D6C789",
";. c #DCCD94",
":. c #D6C99B",
">. c #D8CA99",
",. c #EAD682",
"<. c #E4D28B",
"1. c #CDC4A4",
"2. c #C6C0A9",
"3. c #D0C6A0",
"4. c #C0C0BF",
"5. c #C1C1C1",
"6. c #CACACA",
"7. c #D0D0D0",
/* pixels */
"@ @ @ @ , @ @ @ @ @ @ @ @ @ @ @ @ @ @ @ @ @ @ @ @ @ @ @ @ @ @ @ @ @ @ @ @ @ @ @ @ @ @ @ @ @ @ @ @ @ @ @ @ @ @ @ @ @ @ @ @ @ @ @ ",
"1 @ 1 < < < < < 1 < < < < < < 1 < @ < < < < < < < 1 1 1 1 1 1 < < < < < < < < < 1 1 1 1 1 1 1 < < < < @ @ @ < < 1 1 < < < < < @ ",
"@ w w q q q q q 0 q q q 7 < < 1 w w q q q q q q q q q q q q q q q q q q 7 < @ 1 w w w w q w q w w q q q q q q 0 0 0 0 9 9 9 7 < ",
"< a 0 8 8 q 5 6 q 5 0 7 & o < 1 w 9 5 8 5 9 5 9 = 9 6 9 6 9 = 9 = 9 0 7 * o < @ q 7 0 7 0 8 8 0 * 0 = 0 8 0 5 8 7 = 0 6 0 7 a o ",
"p i y o.o.o.@.o.o.o.o.o.o.o.o.o.@.o.o.o.o.o.o.o.o.o.o.o.o.o.o.o.o.o.o.o.o.o.o.o.o.o.o.o.o.o.o.o.o.o.o.o.o.o.o.o.o.o.o.o.o.i i > ",
"t u : 3 3 4 4 t 4 4 4 4 4 4 4 4 4 4 4 4 4 4 4 4 4 4 4 4 4 4 4 4 4 4 4 4 4 4 4 4 4 4 4 4 4 4 4 4 4 4 4 4 4 4 4 4 4 4 3 3 3 > x : ",
"< - 7 4 4 4 4 _ ' ' ' ' ' ' ' ' ` ` ` ` ` ` ` ` ` ` ` ' ` ` ` ` ` ` ` ` ` ` ` ` ` ` ` ` ` ` ` ` ` ` ` ` ` ' ' ' ` 4 3 4 4 & t o ",
"< 9 = ' 4 r 7     1 * * * * * & * * * * * & * * * * * * * * * * * * * * * * * * * * * * * * * * * * 7 8 e q 4 # $   4 *.3 &   o ",
"< 9 7 } 4 7 o.o.*.o.o.o.o.o.o.o.o.o.o.@.o.o.o.o.o.o.o.o.o.o.o.o.o.o.o.o.o.o.o.o.O.o.o.o.o.o.o.o.o.o.o.@.@.o.o.o...` r 4 3 & # o ",
"< = & o.' # o.o.o.o.o.o.o.*.o.o.o.o.o.o.o.o.o.o.o.o.o.o.o.o.@.o.o.o.o.o.o.o.o.o.@.o.o.o.o.o.o.o.o.o.o.o.o.o.o.o...7.8 3 4   # o ",
"< < o 7.} # o.o.o.o.o.o.o.o.o.o.o.o.o.o.o.o.o.o.o.@.@.o.o.o.o.o.o.o.o.o.o.o.o.o.o.o.o.o.o.@.o.o.o.o.o.o.o.o.o.o.o.4 # 4 '     o ",
"1 @ @ 7.o.1 @.o.o.o.o.o.o.o.o.o.o.@.o.o.o.o.@.o.o.o.o.o.o.o.o.o.+.:.,.~ ( ( ^ ,.1.o.@.o.o.o.o.o.o.o.o.o.o.o.o.o.o.2 1 ) }   o o ",
"w q q o.7.# @.o.o.o.o.@.o.o.o.o.o.o.o.o.o.o.o.o.o.o.o.o.@.o.2.Q / I I I I I I I / ( <.X.o.o.@.@.@.o.o.o.o.o.o.@.@.4   ` } % % q ",
"8 5 5 o.7.* o.o.o.o.o.o.o.o.o.o.@.o.o.o.o.o.o.o.o.o.@.o.O.<.I I I I I I I I I I I / / / 3.o.@.o.o.o.o.o.o.o.o.o.o.t $ } o.% % 8 ",
"5 7 5 o.7.8 o.o.o.o.o.o.o.o.o.o.o.o.o.o.o.o.o.@.o.o.o.*.E I I I I I I I I I I I I I I I / ,.X.o.o.o.o.o.o.o.o.o.o.) * } o.% % 6 ",
"* 7 6 o.@.6 o.@.o.o.o.o.o.o.o.@.o.o.o.o.o.@.o.o.o.o.1.I I I I I I I I I I I I I I I I I I I ~ X.o.o.@.o.o.@.o.o.o.) * } o.% % = ",
"7 5 5 o.o.5 o.o.o.o.@.o.o.o.o.o.o.o.o.o.o.o.o.o.@.*./ I I I I I I I I I I I I I I I I I I I I ,.o.@.o.o.o.o.o.o.o.) * } o.% % = ",
"* 7 & o.o.* o.o.o.o.o.o.o.o.o.o.o.o.o.o.@.o.o.o.@.,.I I I I I I I I I I I I I I I I I I I I I I X.@.o.o.@.o.o.o.o.` * o.o.$ % 5 ",
"* 8 & o.o.* o.o.o.o.o.@.o.o.o.o.o.o.o.o.o.@.o.o.2./ I I I I I I I I I I I I I I I I I I I I I I Q o.o.o.o.o.o.o.@.} & o.o.% % * ",
"# $ $ o.o.* o.o.o.o.o.o.o.o.o.o.o.@.o.o.X.1.;.,.( I I I I I I I I I I I I I I I I I I I I I I I I *.@.o.o.o.o.o.o.} * o.o.# &   ",
"o o o o.o.* o.o.o.o.o.o.o.o.@.@.@.2.,.~ / I I I I I I I I I I I I I I I I I I I I I I I I I I I I <.o.o.o.o.@.o.o.} * o.o.    o ",
"1 1 < o.o.* o.o.o. .o.o.o. .@.:.! I / I I I I I I I I I I I I I I I I I I I I I I I I I I I I I I / o.o.o.o.o.o.o.} * o.o.  o o ",
"1 w w 5.5.= o.o.o.@.o.o.o.*.~ / I I I I I I I I I I I I I I I I I I I I I I I I I I I I I I I I I I *.o.@.o.o.o.o.} * o.o.% % o ",
"1 w 5 7.7.6 o.o.o.o.o.@.1./ I I I I I I I I I I I I I I I I I I I I I I I I I I I I I I I I I I I I 2.@.o.o.o.o.o.} = ....&   o ",
"@ w 8 5.O.5 O.o.o.@.o.*./ I I I I I I I I I I I I I I I I I I I I I I I I I I I I I I I I I I I c W 1.@.o.@.o.o.o.} = o.o.%   . ",
"< 8 & o.o.= o.o.o.O.O.,.I I I I I I I I I I I I I I I I I I I I I I I I I I I I I I I I I I I P ) V 1.o.o.o.o.o.o.o.5 o.o.% $ . ",
"< 9 8 o.o.* o.o.o.o.:./ I I I I I I I I I I I I I I I I I I I I I I I I I I I I P / I I I I I A 4 Z 2.o.o.o.o.o.o.5.6 5.5.% # o ",
"1 9 * } } * o.@.o.o.( I I I I I I I I I I I I I I I I I I I I I I I I I I / J c H I I I I I I G X L o.o.o.o.o.o.o.6.6 7.7.% # o ",
"< 0 7 } } & o.O.o.1.I I I I I I I I I I I I I I I I I I I I I I I I I I I H + { 2 Z P I I I I P V ! o.@.o.o.o.@.o.5.6 5.5.% # o ",
"< 7 6 ` ` $ o.o.o.<.I I I I I I I I I I I I I I I I I I I I I I I I I I I c . 2 @ s I I I I I W P >.o.o.o.o.o.o.o.5.5 5.*.% # o ",
"< < @ } } % o.o.o.,./ I I I I I I I I I I I I I I I I I I I I I I I I I I H + . O Z I I I I D b d #.o.o.o.o.o.o.o.o.5 o.o.X X o ",
"1 1 1 } } % o.o.o.,.I I I I I I I I I I I I I I I I I I I I I I I I I I I I H s G I I I P j d d d g ..o.o.o.o.o.o.o.& o.o.X o o ",
"9 9 8 o.o.* o.o.@.^ I I I I I I I I I I I I I I I I I I I I I I I I I I I I I I I I I K z k g d d d #.o.o.o.o.o.o.o.& @.o.% % 9 ",
"7 8 7 o.o.* O.O.o.<.I I I I I I I I I I I I I I I I I I I I I I I I I I I I I I I I F k k k h d d d M o.o.o.o.o.o.} & } } % % 7 ",
"7 = 5 o.o.* o.o.o.:.I I I I I I I I I I I I I I I I I I I I I I I I I I I I I I P m k k k k k h d d f o.o.@.o.o.o.' % ' ' % % * ",
"5 = 7 o.o.* o.o.@.X.I I I I I I I I I I I I I I I I I I L I I I I I I I I I I I v k k k k k k k l g M o.o.o.o.o.o.) $ ) ) % % * ",
"7 5 = o.o.* o.o.o.o.^ I I I I I I I I I I I I I I I I I I C I I I I I I I I I F z k k k k k k k k k $.o.o.o.o.o.o.` % ` ' % % 5 ",
"7 5 = o.o.= o.o.o.o.>.I I I I I I I I I I I I I I I I I I L C L I I I I I I I I P n k k k k k k k n +.o.o.o.@.o.o.` & ` ' % % * ",
"* = 5 o.o.* o.o.o.o.X.L I I I I I I I I I I I I I I I I I I I C C L L L I P I I P I P F S m m S K / o.o.o.o.o.o.o.} & } } % % * ",
"#   $ o.o.5 o.o.o.@.o.=.L I I I I I I I I I I I I I I I I I I I I L L J C L L L I I I I I I I I I E o.o.O.o.o.O.o.o.& o.o.% % # ",
"o o o 5.5.5 o.o.o.o.o.X.G I I I I I I I I I I I I I I I I I I I I I I I I I I I I I I I I I I I I Q o.o.o.o.o.o.o.o.* o.o.X X o ",
"1 < 1 7.7.7 o.o.o.o.o.o.=.C L I I I I I I I I L I I I I I I I I I I I I I I I I I I I I I I I I I ;.@.o.o.o.o.o.o.o.* o.o.X o o ",
"@ e q O.6.6 o.O.o.o.o.o.@.A C L I I I I I I I C I I I I I I I I I I I I I I I I I I I I I I I I I *.o.o.@.o.@.o.o.5.5 5.*.% % o ",
"1 q 7 o.o.6 o.o.o.@.o.o.o.&.C C H L I I L L C C I I I I I I I I I I I I I I I I I I I I I I I I R o.o.o.o.o.o.o.o.5.5 5.5.&   o ",
"< q 7 o.o.5 o.o.o.o.o.o.o.o.=.G C C C C C C C C I I I I I I I I I I I I I I I I I I I I I I I L -.o.o.o.o.o.o.o.o.7.6 7.7.%   . ",
"< q 5 o.o.5 o.o.@.o.o.o.o.o.o.N C C C C C C C I I I I I I I I I I I I I I I I I I I I I I I I G ..o.o.o.o.o.o.o.o.5.6 5.5.% $ . ",
"@ q 7 o.o.= o.o.o.o.o.@.o.o.o.o.B G C C C C C I I I I I I I I I I I I I I I I I I I I I I I C :.O.o.o.o.o.@.o.o.o.5.5 5.5.% # o ",
"1 q 6 } } * o.o.o.o.o.4.5.5.5.5.O.] C C C C C J I I I I I I I I I I I I I I I I I I I I J C ;.6.7.6.6.O.o.o.o.o.o.o.* o.@.% # o ",
"@ 0 7 } } * o.o.o.o.5.6.6.6.5.5.5.5.o.U G G C C C H L I I I I I I I I I I I I I I I L G Y +.6.6.6.6.6.6.6.o.o.o.o.o.* o.o.% # o ",
"1 7 & o.o.* o.o.o.6.6.6.6.6.5.5.5.5.5.5.[ U C G C C C C H L L I I I I I I I I L L G C T @.5.6.6.6.6.6.7.6.5.o.o.o.o.* o.o.  # o ",
"@ , o o.o.& o.o.o.6.6.6.6.6.5.5.O.5.5.5.O.5.+.%.A C C C C C G G C C C J H C G G C T | 5.o.5.6.6.6.6.6.6.6.6.o.o.o.` * o.o.    o ",
"1 @ 1 o.o.* 4 o.o.o.5.6.6.6.6.5.5.5.5.5.5.5.5.5.5.| %.Y G C C Z C C C C C A T [ o.5.5.5.5.5.5.6.6.6.6.6.5.o.o.o.o.4 * o.o.  o o ",
"q q q o.o.4 * 4 ` o.o.O.5.6.6.6.5.5.5.5.5.O.5.5.5.5.5.5.5.o.| | | | | @.o.5.5.5.5.5.5.5.5.5.5.6.6.6.6.o.o.o.o.` 4 * 4 o.o.% % 9 ",
"= 7 % 4 o.o.4 * * * 4 ` o.o.o.5.6.5.5.5.5.5.5.5.O.5.5.5.5.O.5.5.5.5.5.O.5.5.5.5.5.5.4.5.5.5.5.5.o.o.o.o.` ) * * * 4 ` o.4 % % * ",
"7 = = % 4 o.o.o.` 4 * * * * 4 ` o.o.o.o.o.o.o.o.5.5.5.5.5.5.5.5.5.5.5.5.5.4.5.o.o.o.o.} } o.o.@.` 4 * * * * ) ` o.o.o.4 % % % $ ",
"7 = % % % 1 4 o.o.o.o.o.' 4 * * * 4 ` o.o.o.o.} } } } } 5.5.5.5.5.5.5.5.} } } } } } } o.o.' 4 & * * 4 ` o.o.o.o.o.4 1 % % % * 5 ",
"= 6 % % % % % 1 4 o.o.o.o.o.o.` 4 * * * 4 ` o.o.o.} o.} 5.5.5.5.5.5.5.@.} } } o.} o.` 4 * * * t ` o.o.o.o.o.4 1 % % % % % & * 7 ",
"& 7 = 7 & % & % % % % 1 4 o.o.o.o.o.` 4 * * * 4 ` o.o.o.o.6.6.6.6.6.7.O.o.o.o.` 4 * * * 4 ` o.o.o.o.o.4 1 % % % % % % * % 7 * 7 ",
"& 7 = = & 6 6 & % % % % % % 1 4 ....o.o.o.` 4 * * * * 4 ` o.5.6.6.5.o.` 4 * * * * 4 ` o.o.o.o...4 1 % % % % % % % * 7 * % & 7 $ ",
"= 6 % 7 & & 5 & = = 7 % % % % $ &   1 4 o.o.o.o.o.` ) * * & 4 ` ` 4 * * * 4 ` o.o.o.o.o.4 1   . o o % % % % 7 % 6 * 7 * 7 & 7 * ",
"$ $ $ $ $ $ $ $ $ $ $ $ $ $ $ $   $     o 1 4 o.o.o.o.o.) 4 * * * * 4 ) o.o.o.o.4 1 $ $ $ # # X o o %   # $ $ $ $ $ $ $ $ $ $ $ ",
"o o o o o o o o o o o o o o o o o o .   X X X X o 1 4 o.o.o.o.o.o.o.o.o.o.4 1 X X X X X o X X X o o . . o o o o o X X X X X o o ",
"@ 1 @ 1 @ @ @ < < < < < 1 @ @ @ @ o o o o o o o X X X X X 1 4 o.o.4 1 o X X X X X o o o o o o o o @ ; < < 1 < < < < , @ , < < < ",
"1 1 1 1 1 1 1 1 1 1 1 1 1 1 1 1 1 1 1 , @ @ @ o o X X X X X X X X X X X X X X X X X o @ @ @ < < 1 1 1 1 1 1 1 1 1 1 1 1 1 1 1 1 "
};
