/* XPM */
static char *Q[] = {
/* columns rows colors chars-per-pixel */
"32 32 55 1 ",
"  c #A37E7A",
". c #BC9014",
"X c #BC901B",
"o c #BB8F25",
"O c #BA8F29",
"+ c #B98E30",
"@ c #B98E37",
"# c #B88D3A",
"$ c #B78C41",
"% c #B58B46",
"& c #B38A4E",
"* c #AF875C",
"= c #B18857",
"- c #B08859",
"; c #AE8661",
": c #AA836C",
"> c #A78171",
", c #A68074",
"< c #A88270",
"1 c #6754BF",
"2 c #6955BD",
"3 c #6F59B8",
"4 c #725BB7",
"5 c #765EB4",
"6 c #7D62AE",
"7 c #7A61B1",
"8 c #1027DA",
"9 c #1428DA",
"0 c #1829D9",
"q c #212CD8",
"w c #232DD8",
"e c #2A30D7",
"r c #2F32D5",
"t c #3133D5",
"y c #3334D5",
"u c #3937D3",
"i c #3B39D2",
"p c #3F3AD1",
"a c #433DD0",
"s c #4A41CE",
"d c #584AC7",
"f c #5E4EC4",
"g c #5246CA",
"h c #5649C9",
"j c #6452C0",
"k c #9F7B82",
"l c #99778C",
"z c #98768D",
"x c #9B7889",
"c c #8C6D9E",
"v c #977590",
"b c #A07B82",
"n c #8669A5",
"m c #876AA4",
"M c #8165AA",
/* pixels */
"................................",
"................................",
"................................",
"................................",
"...........%v3dag1c;............",
".........oct888889897%..........",
"........o488888889888s&.........",
"........688888h3j08888hO........",
".......,9888i<...&d9888m........",
".......2888u;.....#d888t@.......",
"......=0888m....... 8888l.......",
"......v8880=.......Xg8884.......",
"......6888d.........m888h.......",
"......j8884.........v8888o......",
"......d888M.........k8888%......",
"......s888c.........:8888=......",
"......s888m......... 8888&......",
"......28805.........l9888@......",
"......4888j.........c988e.......",
"......c888io...:::=.28882.......",
"...... 8888b...M98a:q888c.......",
"......oa888f...%i88e8888*.......",
".......m8888mX..l8888882........",
".......#s8888jl<xt8888e:........",
"........:t888888888888l.........",
".........:a88888888888l.........",
"..........#ms88888tq88a#........",
".............= xb:oc888m........",
"...................Os88q*.......",
"....................=<::&.......",
"................................",
"................................"
};
