/* XPM */
static char *S[] = {
/* columns rows colors chars-per-pixel */
"64 64 52 1 ",
"  c #3146ED",
". c #3045EE",
"X c #3646ED",
"o c #374AED",
"O c #3D4BEB",
"+ c #6962DF",
"@ c #6A63DE",
"# c #796BD7",
"$ c #7C6ED6",
"% c #7267DB",
"& c #7468D9",
"* c #7669D9",
"= c #786BD9",
"- c #7F70D4",
"; c #414BEB",
": c #464FE9",
"> c #484EE9",
", c #4E54E7",
"< c #4851E9",
"1 c #4C51E9",
"2 c #5052E7",
"3 c #5757E5",
"4 c #5658E5",
"5 c #5A5AE5",
"6 c #625DE1",
"7 c #6560E0",
"8 c #6761E0",
"9 c #8C77CC",
"0 c #8F79CB",
"q c #967EC5",
"w c #947DC7",
"e c #917BC9",
"r c #8172D3",
"t c #8272D2",
"y c #8473D1",
"u c #BE9B9D",
"i c #BC999F",
"p c #BF9C9C",
"a c #BF9C9D",
"s c #9F84BE",
"d c #AF8FAF",
"f c #AF91AF",
"g c #B796A6",
"h c #BA98A3",
"j c #BD9AA0",
"k c #B393AB",
"l c #AC8FB2",
"z c #A68AB8",
"x c #A489BA",
"c c #A488BB",
"v c #9981C3",
"b c #9A82C3",
/* pixels */
"................................................................",
"................................................................",
"................................................................",
"................................................................",
"................................................................",
"................................................................",
"................................................................",
"................................................................",
"................................................................",
"................................................................",
"............................6+$y$%6O............................",
"........................,9dppppppappkq3.........................",
"....................  3saaaapppppppppppd6.......................",
".................... -kpaaaappppppppppppae......................",
".................. .9pppppaaapaappppppppaax.....................",
"................   9pppppppaaaaappppppppaaaq....................",
"..................+aaaaaaaappppaaappppppppaa& ..................",
"..................laaaaaaaapdq$6$9dppppppaaaf.. ................",
".................%aaaaaapak%.  ... +kpapppaaa$..................",
".................baaaaaapa6....... .,ippppaaas..................",
".................ippppppiq...........$apppppai..................",
"................Opppppppa%............kpppppaa3.................",
"................3appppppa,............xppappaa6.................",
"................6appppppp6............+qvvqvqq@.................",
"................3aaappppp9..  ..................................",
"................Oapapppppi3   ..................................",
".................dpppppaaak6..  ................................",
".................spppppaaappqO .................................",
"................ 3aaaaaaaapppas@................................",
"................  saaaaappppiapphx%O............................",
"................  ;aaaaappppppppaaaax%..........................",
"................   3haaappppppppaaaaaah9:.......................",
"....................3dppaaaiaaaaaapppppppt......................",
"......................qaaaaaaaaaaapappppppl>....................",
".......................;qaaaaaaaaaaappppppih3...................",
"..........................$zaaapaaaappppiapplO..................",
".........................   O&sppppippppppppiq..................",
"............................... $xpppppppppppp;.................",
"................................. 3spippppppppt.................",
"................................   .$ippppppppx ................",
"................................ ....%paaaaappk ................",
"................................ .....xiaaaapap ................",
"................rr$r$t$$..............tpppaapap.................",
"............... aaaaaaaa2.............8ppppapii.................",
"................kpppaaaa$.............$pppppppd.................",
"............... dpppaaaal.............qpppppppx.................",
"..............  ypppppppaq...........+ppppppppt.................",
".............. .3appppppaae:........6ipppppppp2.................",
".................zaaaappppph0+>. 3*lpppppppiix..................",
".................5aaaappppaapppapgappppppppph3..................",
"..................epapppppppppppppppppppppipt...................",
"...................qaappppppppppppppppppppp9....................",
"....................eppppppppppppppppaaappt.....................",
".....................6kppppppppgppppppaac3......................",
".......................6xagpppaapgpppgq3........................",
"..........................6rqsxzzxer3...........................",
"................................................................",
"................................ ...............................",
"................................ ...............................",
"................................  ..............................",
"................................................................",
"................................................................",
"................................................................",
"................................................................"
};
