/* XPM */
static char *W[] = {
/* columns rows colors chars-per-pixel */
"64 64 40 1 ",
"  c #2D4C38",
". c #324C38",
"X c #344D38",
"o c #384E39",
"O c #464F3A",
"+ c #4D4F3B",
"@ c #4E503B",
"# c #54503C",
"$ c #55513D",
"% c #58513C",
"& c #61533E",
"* c #6D553F",
"= c #6F5640",
"- c #725640",
"; c #755641",
": c #7D5843",
"> c #7E5842",
", c #875A45",
"< c #8E5C45",
"1 c #905C46",
"2 c #985F47",
"3 c #975E48",
"4 c #9A5F48",
"5 c #9C6048",
"6 c #A06149",
"7 c #A3614A",
"8 c #AC644C",
"9 c #B1664D",
"0 c #B4674E",
"q c #B8674F",
"w c #B9684F",
"e c #BB6850",
"r c #BE6951",
"t c #C16A52",
"y c #C66C53",
"u c #CA6D54",
"i c #CF6F55",
"p c #D06F55",
"a c #D67057",
"s c #D77157",
/* pixels */
"ssssssssssssssssssssssssssssssssssssssssssssssssssssssssssssssss",
"ssssssssssssssssssssssssssssssssssssssssssssssssssssssssssssssss",
"ssssssssssssssssssssssssssssssssssssssssssssssssssssssssssssssss",
"ssssssssssssssssssssssssssssssssssssssssssssssssssssssssssssssss",
"ssssssssssssssssssssssssssssssssssssssssssssssssssssssssssssssss",
"ssssssssssssssssssssssssssssssssssssssssssssssssssssssssssssssss",
"ssssssssssssssssssssssssssssssssssssssssssssssssssssssssssssssss",
"ssssssssssssssssssssssssssssssssssssssssssssssssssssssssssssssss",
"ssssssssssssssssssssssssssssssssssssssssssssssssssssssssssssssss",
"ssssssssssssssssssssssssssssssssssssssssssssssssssssssssssssssss",
"ssssssssssssssssssssssssssssssssssssssssssssssssssssssssssssssss",
"ssssssssssssssssssssssssssssssssssssssssssssssssssssssssssssssss",
"ssssssssssssssssssssssssssssssssssspssssssssssssssssssssssssssss",
"sssssss6,,,,,,,6ssssssssssssu,1,,1,,8ssssssssssssy,,,,,,,,usssss",
"sssssss5       $ssssssssssssq       ;ssssssssssss8       .ssssss",
"sssssssq        usssssssssss6       opsssssssssss4       =ssssss",
"sssssssp        ypssssssssss:        usssssssssss;       1ssssss",
"ssssssss&       6sssssssssssO        8sssssssssssO       0ssssss",
"ssssssss,.      1ssssssssspu.        ,ssssssssssu        ussssss",
"ssssssss8       =ssssssssss0.       .%sssssssssst       @sssssss",
"ssssssssy       ossssssssss1          ysssssssss6       ,sssssss",
"sssssssssO       usssssssss*          0sssssssss,       6sssssss",
"sssssssss:       0sssssssss.          2sssssssss&       tsssssss",
"sssssssss6      .1ssssssspu           ,ssssssssp.      ossssssss",
"sssssssssr       :ssssssss8           Opsssssssy      .*ssssssss",
"sssssssssp.      $ssssssss,     :      usssssss8      .1ssssssss",
"sssssssssp=       ppssssss$     8&.    0sssssss1       0ssssssss",
"ssssssssss1       yssssssu      u,     1sssssss;      .ussssssss",
"ssssssssss0       6ssssssq     @s8     *sssssssO      %sssssssss",
"ssssssssssu       1ssssss2     ,sy     .psssssu       ,sssssssss",
"sssssssssss@      *ssssss;     2ssO     ysssssq       8sssssssss",
"sssssssssss,      .psssssO     yss,     6sssss6       usssssssss",
"sssssssssss5       yssssy     .sss7     ,sssss,      Ossssssssss",
"sssssssssssu       0ssss8     :sssy.    %pssss%      :ssssssssss",
"ssssssssssss.      5ssss,     5ssspo     ussss       4ssssssssss",
"ssssssssssss*      :ssss&     9ssss*    .0sssr       qssssssssss",
"ssssssssssss5.     $ssss      sssss2     1sss8       pssssssssss",
"ssssssssssss0       uss9    .&sssss0     ;sss1      &sssssssssss",
"ssssssssssssu       yss5     ,sssssp     osss*      1sssssssssss",
"sssssssssssss$      6ss,     8ssssss@    .tssO      8sssssssssss",
"sssssssssssss,      ,ss@     yssssss,.    8pu       usssssssssss",
"sssssssssssss0      &su     @sssssss7     1s0      Opsssssssssss",
"ssssssssssssst.     .s0     :sssssssu     %s2      ,ssssssssssss",
"ssssssssssssspO     .u1     5ssssssspO     u,      6ssssssssssss",
"ssssssssssssss*      0*    .rssssssss,     t%      qssssssssssss",
"ssssssssssssss7      1.    .ssssssssp7     2      .sssssssssssss",
"sssssssssssssst            ;sssssssssq.           *sssssssssssss",
"ssssssssssssssu.           1sssssssssp.          .1sssssssssssss",
"sssssssssssssss&           0ssssssssss;           0pssssssssssss",
"sssssssssssssss1           psssssssssu3           usssssssssssss",
"sssssssssssssss0          %sssssssssss8          $ssssssssssssss",
"ssssssssssssssst          1sssssssssssu.         1ssssssssssssss",
"ssssssssssssssssO.        6ssssssssssssO         6ssssssssssssss",
"ssssssssssssssss:         yssssssssssss,         ussssssssssssss",
"ssssssssssssssss4        Osssssssssssss6        .pssssssssssssss",
"ssssssssssssssssy        :sssssssssssssy        :ussssssssssssss",
"sssssssssssssssss.       5sssssssssssssso...    2sssssssssssssss",
"ssssssssssssssssssssssssssssssssssssssaassssssssssssssssssssssss",
"ssssssssssssssssssssssssssssssssssssssasssssssssssssssssssssssss",
"ssssssssssssssssssssssssssssssssssssssssssssssssssssssssssssssss",
"ssssssssssssssssssssssssssssssssssssssssssssssssssssssssssssssss",
"ssssssssssssssssssssssssssssssssssssssssssssssssssssssssssssssss",
"ssssssssssssssssssssssssssssssssssssssssssssssssssssssssssssssss",
"ssssssssssssssssssssssssssssssssssssssssssssssssssssssssssssssss"
};
